<svg xmlns="http://www.w3.org/2000/svg" xmlns:xlink="http://www.w3.org/1999/xlink" width="1200" zoomAndPan="magnify" viewBox="0 0 900 269.999989" height="360" preserveAspectRatio="xMidYMid meet" version="1.0"><defs><g/><clipPath id="dddad83c8a"><rect x="0" width="699" y="0" height="270"/></clipPath></defs><g transform="matrix(1, 0, 0, 1, 101, 0)"><g clip-path="url(#dddad83c8a)"><g fill="#ad3918" fill-opacity="1"><g transform="translate(1.150671, 219.293424)"><g><path d="M 98.703125 -148.515625 C 103.109375 -143.890625 105.3125 -138.382812 105.3125 -131.992188 L 105.3125 -73.621094 C 105.3125 -67.230469 103.109375 -61.722656 98.703125 -57.097656 L 98.632812 -57.023438 L 91.59375 -49.984375 C 87.09375 -45.484375 81.609375 -43.234375 75.144531 -43.234375 L 39.421875 -43.234375 C 38.855469 -43.234375 38.445312 -43.195312 38.195312 -43.109375 C 38.324219 -43.152344 38.480469 -43.265625 38.664062 -43.449219 C 38.847656 -43.632812 38.960938 -43.789062 39.003906 -43.917969 C 38.921875 -43.667969 38.878906 -43.257812 38.878906 -42.691406 L 38.878906 -6.535156 C 38.878906 -1.375 37.355469 2.730469 34.308594 5.777344 C 31.261719 8.824219 27.160156 10.347656 22 10.347656 L 19.601562 10.347656 C 14.441406 10.347656 10.339844 8.824219 7.292969 5.777344 C 4.246094 2.730469 2.722656 -1.375 2.722656 -6.535156 L 2.722656 -145.496094 C 2.722656 -150.65625 4.246094 -154.761719 7.292969 -157.808594 C 10.339844 -160.855469 14.441406 -162.378906 19.601562 -162.378906 L 75.144531 -162.378906 C 81.609375 -162.378906 87.09375 -160.128906 91.59375 -155.628906 L 98.632812 -148.589844 Z M 86.871094 -137.25 L 92.789062 -142.882812 L 87.011719 -137.109375 L 80.042969 -144.078125 C 78.730469 -145.386719 77.101562 -146.042969 75.144531 -146.042969 L 19.601562 -146.042969 C 19.035156 -146.042969 18.625 -146 18.375 -145.917969 C 18.503906 -145.960938 18.660156 -146.074219 18.84375 -146.257812 C 19.027344 -146.4375 19.140625 -146.59375 19.183594 -146.726562 C 19.101562 -146.476562 19.058594 -146.066406 19.058594 -145.496094 L 19.058594 -6.535156 C 19.058594 -5.964844 19.101562 -5.554688 19.183594 -5.304688 C 19.140625 -5.4375 19.027344 -5.59375 18.84375 -5.777344 C 18.660156 -5.957031 18.503906 -6.070312 18.375 -6.113281 C 18.625 -6.03125 19.035156 -5.988281 19.601562 -5.988281 L 22 -5.988281 C 22.566406 -5.988281 22.976562 -6.03125 23.226562 -6.113281 C 23.097656 -6.070312 22.941406 -5.957031 22.757812 -5.777344 C 22.574219 -5.59375 22.460938 -5.4375 22.417969 -5.304688 C 22.5 -5.554688 22.542969 -5.964844 22.542969 -6.535156 L 22.542969 -42.691406 C 22.542969 -47.851562 24.066406 -51.953125 27.113281 -55 C 30.160156 -58.046875 34.265625 -59.570312 39.421875 -59.570312 L 75.144531 -59.570312 C 77.101562 -59.570312 78.730469 -60.226562 80.042969 -61.535156 L 87.011719 -68.503906 L 92.789062 -62.730469 L 86.871094 -68.363281 C 88.273438 -69.835938 88.976562 -71.585938 88.976562 -73.621094 L 88.976562 -131.992188 C 88.976562 -134.027344 88.273438 -135.777344 86.871094 -137.25 Z M 69.371094 -125.675781 C 69.371094 -126.246094 69.332031 -126.65625 69.246094 -126.90625 C 69.289062 -126.773438 69.402344 -126.617188 69.585938 -126.433594 C 69.769531 -126.253906 69.925781 -126.140625 70.058594 -126.09375 C 69.804688 -126.179688 69.398438 -126.222656 68.828125 -126.222656 L 39.640625 -126.222656 C 39.074219 -126.222656 38.664062 -126.179688 38.414062 -126.09375 C 38.542969 -126.140625 38.699219 -126.253906 38.882812 -126.433594 C 39.066406 -126.617188 39.179688 -126.773438 39.222656 -126.90625 C 39.140625 -126.65625 39.097656 -126.246094 39.097656 -125.675781 L 39.097656 -79.9375 C 39.097656 -79.367188 39.140625 -78.957031 39.222656 -78.707031 C 39.179688 -78.839844 39.066406 -78.996094 38.882812 -79.175781 C 38.699219 -79.359375 38.542969 -79.472656 38.414062 -79.515625 C 38.664062 -79.433594 39.074219 -79.390625 39.640625 -79.390625 L 68.609375 -79.390625 C 69.179688 -79.390625 69.589844 -79.433594 69.839844 -79.515625 C 69.707031 -79.472656 69.550781 -79.359375 69.367188 -79.175781 C 69.1875 -78.996094 69.074219 -78.839844 69.03125 -78.707031 C 69.113281 -78.957031 69.15625 -79.367188 69.15625 -79.9375 L 69.371094 -125.714844 Z M 85.707031 -125.636719 L 85.492188 -79.9375 C 85.492188 -74.777344 83.96875 -70.671875 80.921875 -67.625 C 77.875 -64.578125 73.769531 -63.054688 68.609375 -63.054688 L 39.640625 -63.054688 C 34.480469 -63.054688 30.378906 -64.578125 27.332031 -67.625 C 24.285156 -70.671875 22.761719 -74.777344 22.761719 -79.9375 L 22.761719 -125.675781 C 22.761719 -130.835938 24.285156 -134.941406 27.332031 -137.988281 C 30.378906 -141.035156 34.480469 -142.558594 39.640625 -142.558594 L 68.828125 -142.558594 C 73.988281 -142.558594 78.089844 -141.035156 81.136719 -137.988281 C 84.183594 -134.941406 85.707031 -130.835938 85.707031 -125.675781 Z M 85.707031 -125.636719 "/></g></g></g><g fill="#ad3918" fill-opacity="1"><g transform="translate(107.006283, 219.293424)"><g><path d="M 88.214844 -26.027344 C 93.371094 -26.027344 97.476562 -24.503906 100.523438 -21.457031 C 103.570312 -18.410156 105.09375 -14.308594 105.09375 -9.148438 L 105.09375 -6.753906 C 105.09375 -1.59375 103.570312 2.511719 100.523438 5.558594 C 97.476562 8.605469 93.371094 10.128906 88.214844 10.128906 L 80.371094 10.128906 C 73.90625 10.128906 68.421875 7.878906 63.921875 3.378906 L 56.734375 -3.808594 C 52.238281 -8.308594 49.988281 -13.789062 49.988281 -20.257812 L 49.988281 -46.828125 C 49.988281 -47.398438 49.945312 -47.808594 49.863281 -48.058594 C 49.90625 -47.925781 50.019531 -47.769531 50.203125 -47.589844 C 50.382812 -47.40625 50.542969 -47.292969 50.671875 -47.25 C 50.421875 -47.332031 50.011719 -47.375 49.441406 -47.375 L 39.421875 -47.375 C 38.855469 -47.375 38.445312 -47.332031 38.195312 -47.25 C 38.324219 -47.292969 38.480469 -47.40625 38.664062 -47.589844 C 38.847656 -47.769531 38.960938 -47.925781 39.003906 -48.058594 C 38.921875 -47.808594 38.878906 -47.398438 38.878906 -46.828125 L 38.878906 -6.96875 C 38.878906 -1.808594 37.355469 2.292969 34.308594 5.339844 C 31.261719 8.386719 27.160156 9.910156 22 9.910156 L 19.601562 9.910156 C 14.441406 9.910156 10.339844 8.386719 7.292969 5.339844 C 4.246094 2.292969 2.722656 -1.808594 2.722656 -6.96875 L 2.722656 -145.714844 C 2.722656 -150.875 4.246094 -154.976562 7.292969 -158.023438 C 10.339844 -161.070312 14.441406 -162.59375 19.601562 -162.59375 L 74.707031 -162.59375 C 81.175781 -162.59375 86.660156 -160.347656 91.15625 -155.847656 L 98.34375 -148.660156 C 102.84375 -144.160156 105.09375 -138.675781 105.09375 -132.210938 L 105.09375 -77.539062 C 105.09375 -74.230469 104.503906 -71.21875 103.328125 -68.511719 C 102.1875 -65.894531 100.457031 -63.421875 98.128906 -61.09375 L 91.15625 -54.121094 C 89.421875 -52.386719 87.898438 -51.035156 86.59375 -50.066406 C 84.171875 -48.273438 81.804688 -47.375 79.5 -47.375 C 81.3125 -47.375 82.917969 -47.941406 84.308594 -49.078125 C 85.058594 -49.691406 85.644531 -50.398438 86.066406 -51.199219 C 86.222656 -51.5 86.339844 -51.777344 86.414062 -52.03125 C 86.421875 -52.054688 86.425781 -52.074219 86.425781 -52.082031 C 86.421875 -52.050781 86.414062 -52.007812 86.402344 -51.957031 C 86.230469 -50.96875 86.144531 -49.261719 86.144531 -46.828125 L 86.144531 -26.574219 C 86.144531 -26.003906 86.1875 -25.59375 86.269531 -25.34375 C 86.226562 -25.472656 86.113281 -25.632812 85.929688 -25.8125 C 85.746094 -25.996094 85.589844 -26.109375 85.460938 -26.152344 C 85.710938 -26.070312 86.121094 -26.027344 86.6875 -26.027344 Z M 88.214844 -9.691406 L 86.6875 -9.691406 C 81.527344 -9.691406 77.425781 -11.214844 74.378906 -14.261719 C 71.332031 -17.308594 69.808594 -21.414062 69.808594 -26.574219 L 69.808594 -46.828125 C 69.808594 -50.207031 69.976562 -52.855469 70.3125 -54.773438 C 70.585938 -56.335938 71.015625 -57.675781 71.601562 -58.792969 C 72.214844 -59.960938 73.007812 -60.9375 73.976562 -61.734375 C 75.59375 -63.050781 77.433594 -63.710938 79.5 -63.710938 C 78.496094 -63.710938 77.617188 -63.523438 76.859375 -63.15625 L 76.871094 -63.195312 C 77.527344 -63.679688 78.4375 -64.507812 79.605469 -65.671875 L 86.574219 -72.644531 C 87.441406 -73.507812 88.03125 -74.304688 88.347656 -75.023438 C 88.621094 -75.65625 88.757812 -76.496094 88.757812 -77.539062 L 88.757812 -132.210938 C 88.757812 -134.167969 88.101562 -135.796875 86.792969 -137.109375 L 79.605469 -144.296875 C 78.296875 -145.605469 76.664062 -146.257812 74.707031 -146.257812 L 19.601562 -146.257812 C 19.035156 -146.257812 18.625 -146.21875 18.375 -146.132812 C 18.503906 -146.175781 18.660156 -146.289062 18.84375 -146.472656 C 19.027344 -146.65625 19.140625 -146.8125 19.183594 -146.945312 C 19.101562 -146.691406 19.058594 -146.285156 19.058594 -145.714844 L 19.058594 -6.96875 C 19.058594 -6.402344 19.101562 -5.992188 19.183594 -5.742188 C 19.140625 -5.871094 19.027344 -6.027344 18.84375 -6.210938 C 18.660156 -6.394531 18.503906 -6.507812 18.375 -6.550781 C 18.625 -6.46875 19.035156 -6.425781 19.601562 -6.425781 L 22 -6.425781 C 22.566406 -6.425781 22.976562 -6.46875 23.226562 -6.550781 C 23.097656 -6.507812 22.941406 -6.394531 22.757812 -6.210938 C 22.574219 -6.027344 22.460938 -5.871094 22.417969 -5.742188 C 22.5 -5.992188 22.542969 -6.402344 22.542969 -6.96875 L 22.542969 -46.828125 C 22.542969 -51.988281 24.066406 -56.09375 27.113281 -59.140625 C 30.160156 -62.1875 34.265625 -63.710938 39.421875 -63.710938 L 49.441406 -63.710938 C 54.601562 -63.710938 58.707031 -62.1875 61.753906 -59.140625 C 64.800781 -56.09375 66.324219 -51.988281 66.324219 -46.828125 L 66.324219 -20.257812 C 66.324219 -18.300781 66.976562 -16.667969 68.289062 -15.359375 L 75.476562 -8.171875 C 76.785156 -6.863281 78.417969 -6.207031 80.371094 -6.207031 L 88.214844 -6.207031 C 88.78125 -6.207031 89.191406 -6.25 89.441406 -6.332031 C 89.3125 -6.289062 89.15625 -6.175781 88.972656 -5.992188 C 88.789062 -5.808594 88.675781 -5.652344 88.632812 -5.523438 C 88.714844 -5.773438 88.757812 -6.183594 88.757812 -6.753906 L 88.757812 -9.148438 C 88.757812 -9.714844 88.714844 -10.125 88.632812 -10.375 C 88.675781 -10.246094 88.789062 -10.089844 88.972656 -9.90625 C 89.15625 -9.722656 89.3125 -9.609375 89.441406 -9.566406 C 89.191406 -9.652344 88.78125 -9.691406 88.214844 -9.691406 Z M 68.9375 -125.894531 C 68.9375 -126.460938 68.894531 -126.871094 68.8125 -127.125 C 68.855469 -126.992188 68.96875 -126.835938 69.152344 -126.652344 C 69.335938 -126.46875 69.492188 -126.355469 69.621094 -126.3125 C 69.371094 -126.398438 68.960938 -126.4375 68.390625 -126.4375 L 39.421875 -126.4375 C 38.855469 -126.4375 38.445312 -126.398438 38.195312 -126.3125 C 38.324219 -126.355469 38.480469 -126.46875 38.664062 -126.652344 C 38.847656 -126.835938 38.960938 -126.992188 39.003906 -127.125 C 38.921875 -126.871094 38.878906 -126.460938 38.878906 -125.894531 L 38.878906 -83.855469 C 38.878906 -83.289062 38.921875 -82.878906 39.003906 -82.628906 C 38.960938 -82.757812 38.847656 -82.914062 38.664062 -83.097656 C 38.480469 -83.28125 38.324219 -83.394531 38.195312 -83.4375 C 38.445312 -83.355469 38.855469 -83.3125 39.421875 -83.3125 L 68.390625 -83.3125 C 68.960938 -83.3125 69.371094 -83.355469 69.621094 -83.4375 C 69.492188 -83.394531 69.335938 -83.28125 69.152344 -83.097656 C 68.96875 -82.914062 68.855469 -82.757812 68.8125 -82.628906 C 68.894531 -82.878906 68.9375 -83.289062 68.9375 -83.855469 Z M 85.273438 -125.894531 L 85.273438 -83.855469 C 85.273438 -78.699219 83.75 -74.59375 80.703125 -71.546875 C 77.65625 -68.5 73.550781 -66.976562 68.390625 -66.976562 L 39.421875 -66.976562 C 34.265625 -66.976562 30.160156 -68.5 27.113281 -71.546875 C 24.066406 -74.59375 22.542969 -78.699219 22.542969 -83.855469 L 22.542969 -125.894531 C 22.542969 -131.054688 24.066406 -135.15625 27.113281 -138.203125 C 30.160156 -141.25 34.265625 -142.773438 39.421875 -142.773438 L 68.390625 -142.773438 C 73.550781 -142.773438 77.65625 -141.25 80.703125 -138.203125 C 83.75 -135.15625 85.273438 -131.054688 85.273438 -125.894531 Z M 85.273438 -125.894531 "/></g></g></g><g fill="#ad3918" fill-opacity="1"><g transform="translate(212.644095, 219.293424)"><g><path d="M 105.3125 -20.257812 C 105.3125 -13.867188 103.109375 -8.359375 98.703125 -3.734375 L 98.632812 -3.660156 L 91.59375 3.378906 C 87.09375 7.878906 81.609375 10.128906 75.144531 10.128906 L 33.105469 10.128906 C 26.640625 10.128906 21.15625 7.878906 16.660156 3.378906 L 9.472656 -3.808594 C 4.972656 -8.308594 2.722656 -13.789062 2.722656 -20.257812 L 2.722656 -132.644531 C 2.722656 -139.035156 4.925781 -144.542969 9.332031 -149.171875 L 16.441406 -156.28125 C 20.941406 -160.78125 26.421875 -163.03125 32.890625 -163.03125 L 75.144531 -163.03125 C 81.6875 -163.03125 87.21875 -160.660156 91.730469 -155.921875 L 85.816406 -150.289062 L 91.59375 -156.066406 L 98.5625 -149.09375 C 103.0625 -144.597656 105.3125 -139.113281 105.3125 -132.644531 Z M 88.976562 -20.257812 L 88.976562 -132.644531 C 88.976562 -134.601562 88.320312 -136.234375 87.011719 -137.542969 L 79.972656 -144.582031 L 79.902344 -144.65625 C 78.609375 -146.015625 77.023438 -146.695312 75.144531 -146.695312 L 32.890625 -146.695312 C 30.933594 -146.695312 29.300781 -146.039062 27.992188 -144.730469 L 21.023438 -137.761719 L 15.246094 -143.535156 L 21.160156 -137.902344 C 19.757812 -136.433594 19.058594 -134.679688 19.058594 -132.644531 L 19.058594 -20.257812 C 19.058594 -18.300781 19.714844 -16.667969 21.023438 -15.359375 L 28.210938 -8.171875 C 29.519531 -6.863281 31.152344 -6.207031 33.105469 -6.207031 L 75.144531 -6.207031 C 77.101562 -6.207031 78.730469 -6.863281 80.042969 -8.171875 L 87.011719 -15.140625 L 92.789062 -9.367188 L 86.871094 -15 C 88.273438 -16.472656 88.976562 -18.222656 88.976562 -20.257812 Z M 68.609375 -26.027344 C 69.179688 -26.027344 69.589844 -26.070312 69.839844 -26.152344 C 69.707031 -26.109375 69.550781 -25.996094 69.367188 -25.8125 C 69.1875 -25.632812 69.074219 -25.472656 69.03125 -25.34375 C 69.113281 -25.59375 69.15625 -26.003906 69.15625 -26.574219 L 69.15625 -126.328125 C 69.15625 -126.898438 69.113281 -127.308594 69.03125 -127.558594 C 69.074219 -127.429688 69.1875 -127.273438 69.367188 -127.089844 C 69.550781 -126.90625 69.707031 -126.792969 69.839844 -126.75 C 69.589844 -126.832031 69.179688 -126.875 68.609375 -126.875 L 39.421875 -126.875 C 38.855469 -126.875 38.445312 -126.832031 38.195312 -126.75 C 38.324219 -126.792969 38.480469 -126.90625 38.664062 -127.089844 C 38.847656 -127.273438 38.960938 -127.429688 39.003906 -127.558594 C 38.921875 -127.308594 38.878906 -126.898438 38.878906 -126.328125 L 38.878906 -26.574219 C 38.878906 -26.003906 38.921875 -25.59375 39.003906 -25.34375 C 38.960938 -25.472656 38.847656 -25.632812 38.664062 -25.8125 C 38.480469 -25.996094 38.324219 -26.109375 38.195312 -26.152344 C 38.445312 -26.070312 38.855469 -26.027344 39.421875 -26.027344 Z M 68.609375 -9.691406 L 39.421875 -9.691406 C 34.265625 -9.691406 30.160156 -11.214844 27.113281 -14.261719 C 24.066406 -17.308594 22.542969 -21.414062 22.542969 -26.574219 L 22.542969 -126.328125 C 22.542969 -131.488281 24.066406 -135.59375 27.113281 -138.640625 C 30.160156 -141.6875 34.265625 -143.210938 39.421875 -143.210938 L 68.609375 -143.210938 C 73.769531 -143.210938 77.875 -141.6875 80.921875 -138.640625 C 83.96875 -135.59375 85.492188 -131.488281 85.492188 -126.328125 L 85.492188 -26.574219 C 85.492188 -21.414062 83.96875 -17.308594 80.921875 -14.261719 C 77.875 -11.214844 73.769531 -9.691406 68.609375 -9.691406 Z M 68.609375 -9.691406 "/></g></g></g><g fill="#ad3918" fill-opacity="1"><g transform="translate(320.677799, 219.293424)"><g><path d="M 2.722656 -145.714844 C 2.722656 -150.875 4.246094 -154.976562 7.292969 -158.023438 C 10.339844 -161.070312 14.441406 -162.59375 19.601562 -162.59375 L 88.214844 -162.59375 C 93.371094 -162.59375 97.476562 -161.070312 100.523438 -158.023438 C 103.570312 -154.976562 105.09375 -150.875 105.09375 -145.714844 L 105.09375 -143.320312 C 105.09375 -138.160156 103.570312 -134.054688 100.523438 -131.007812 C 97.476562 -127.960938 93.371094 -126.4375 88.214844 -126.4375 L 39.421875 -126.4375 C 38.855469 -126.4375 38.445312 -126.398438 38.195312 -126.3125 C 38.324219 -126.355469 38.480469 -126.46875 38.664062 -126.652344 C 38.847656 -126.835938 38.960938 -126.992188 39.003906 -127.125 C 38.921875 -126.871094 38.878906 -126.460938 38.878906 -125.894531 L 38.878906 -88.867188 C 38.878906 -88.296875 38.921875 -87.886719 39.003906 -87.636719 C 38.960938 -87.769531 38.847656 -87.925781 38.664062 -88.109375 C 38.480469 -88.289062 38.324219 -88.402344 38.195312 -88.449219 C 38.445312 -88.363281 38.855469 -88.320312 39.421875 -88.320312 L 88.214844 -88.320312 C 93.371094 -88.320312 97.476562 -86.796875 100.523438 -83.75 C 103.570312 -80.703125 105.09375 -76.601562 105.09375 -71.441406 L 105.09375 -69.046875 C 105.09375 -63.886719 103.570312 -59.78125 100.523438 -56.734375 C 97.476562 -53.6875 93.371094 -52.164062 88.214844 -52.164062 L 39.421875 -52.164062 C 38.855469 -52.164062 38.445312 -52.125 38.195312 -52.039062 C 38.324219 -52.082031 38.480469 -52.195312 38.664062 -52.378906 C 38.847656 -52.5625 38.960938 -52.71875 39.003906 -52.851562 C 38.921875 -52.597656 38.878906 -52.191406 38.878906 -51.621094 L 38.878906 -6.753906 C 38.878906 -1.59375 37.355469 2.511719 34.308594 5.558594 C 31.261719 8.605469 27.160156 10.128906 22 10.128906 L 19.601562 10.128906 C 14.441406 10.128906 10.339844 8.605469 7.292969 5.558594 C 4.246094 2.511719 2.722656 -1.59375 2.722656 -6.753906 Z M 19.058594 -145.714844 L 19.058594 -6.753906 C 19.058594 -6.183594 19.101562 -5.773438 19.183594 -5.523438 C 19.140625 -5.652344 19.027344 -5.808594 18.84375 -5.992188 C 18.660156 -6.175781 18.503906 -6.289062 18.375 -6.332031 C 18.625 -6.25 19.035156 -6.207031 19.601562 -6.207031 L 22 -6.207031 C 22.566406 -6.207031 22.976562 -6.25 23.226562 -6.332031 C 23.097656 -6.289062 22.941406 -6.175781 22.757812 -5.992188 C 22.574219 -5.808594 22.460938 -5.652344 22.417969 -5.523438 C 22.5 -5.773438 22.542969 -6.183594 22.542969 -6.753906 L 22.542969 -51.621094 C 22.542969 -56.78125 24.066406 -60.882812 27.113281 -63.929688 C 30.160156 -66.976562 34.265625 -68.5 39.421875 -68.5 L 88.214844 -68.5 C 88.78125 -68.5 89.191406 -68.542969 89.441406 -68.625 C 89.3125 -68.582031 89.15625 -68.46875 88.972656 -68.289062 C 88.789062 -68.105469 88.675781 -67.949219 88.632812 -67.816406 C 88.714844 -68.066406 88.757812 -68.476562 88.757812 -69.046875 L 88.757812 -71.441406 C 88.757812 -72.011719 88.714844 -72.417969 88.632812 -72.671875 C 88.675781 -72.539062 88.789062 -72.382812 88.972656 -72.199219 C 89.15625 -72.015625 89.3125 -71.90625 89.441406 -71.859375 C 89.191406 -71.945312 88.78125 -71.984375 88.214844 -71.984375 L 39.421875 -71.984375 C 34.265625 -71.984375 30.160156 -73.507812 27.113281 -76.558594 C 24.066406 -79.605469 22.542969 -83.707031 22.542969 -88.867188 L 22.542969 -125.894531 C 22.542969 -131.054688 24.066406 -135.15625 27.113281 -138.203125 C 30.160156 -141.25 34.265625 -142.773438 39.421875 -142.773438 L 88.214844 -142.773438 C 88.78125 -142.773438 89.191406 -142.816406 89.441406 -142.898438 C 89.3125 -142.855469 89.15625 -142.742188 88.972656 -142.558594 C 88.789062 -142.378906 88.675781 -142.222656 88.632812 -142.089844 C 88.714844 -142.339844 88.757812 -142.75 88.757812 -143.320312 L 88.757812 -145.714844 C 88.757812 -146.285156 88.714844 -146.691406 88.632812 -146.945312 C 88.675781 -146.8125 88.789062 -146.65625 88.972656 -146.472656 C 89.15625 -146.289062 89.3125 -146.175781 89.441406 -146.132812 C 89.191406 -146.21875 88.78125 -146.257812 88.214844 -146.257812 L 19.601562 -146.257812 C 19.035156 -146.257812 18.625 -146.21875 18.375 -146.132812 C 18.503906 -146.175781 18.660156 -146.289062 18.84375 -146.472656 C 19.027344 -146.65625 19.140625 -146.8125 19.183594 -146.945312 C 19.101562 -146.691406 19.058594 -146.285156 19.058594 -145.714844 Z M 19.058594 -145.714844 "/></g></g></g><g fill="#ad3918" fill-opacity="1"><g transform="translate(426.315631, 219.293424)"><g><path d="M -3.8125 -9.148438 C -3.8125 -13.921875 -2.503906 -17.835938 0.113281 -20.890625 C 3.050781 -24.316406 7.007812 -26.027344 11.980469 -26.027344 C 12.125 -26.027344 12.234375 -26.035156 12.3125 -26.050781 C 12.292969 -26.046875 12.25 -26.03125 12.1875 -26.007812 C 11.902344 -25.890625 11.652344 -25.707031 11.441406 -25.464844 C 11.378906 -25.390625 11.332031 -25.324219 11.296875 -25.257812 L 11.300781 -25.28125 C 11.390625 -25.574219 11.433594 -26.003906 11.433594 -26.574219 L 11.433594 -126.113281 C 11.433594 -126.679688 11.390625 -127.109375 11.300781 -127.402344 L 11.296875 -127.425781 C 11.332031 -127.359375 11.378906 -127.292969 11.441406 -127.222656 C 11.652344 -126.976562 11.902344 -126.796875 12.1875 -126.679688 C 12.25 -126.652344 12.292969 -126.640625 12.3125 -126.636719 C 12.234375 -126.648438 12.125 -126.65625 11.980469 -126.65625 C 7.007812 -126.65625 3.050781 -128.371094 0.113281 -131.796875 C -2.503906 -134.851562 -3.8125 -138.765625 -3.8125 -143.535156 L -3.8125 -145.933594 C -3.8125 -151.09375 -2.289062 -155.195312 0.757812 -158.242188 C 3.804688 -161.289062 7.910156 -162.8125 13.070312 -162.8125 L 46.175781 -162.8125 C 51.335938 -162.8125 55.4375 -161.289062 58.484375 -158.242188 C 61.53125 -155.195312 63.054688 -151.09375 63.054688 -145.933594 L 63.054688 -143.535156 C 63.054688 -138.585938 61.746094 -134.617188 59.128906 -131.625 C 56.230469 -128.3125 52.277344 -126.65625 47.265625 -126.65625 C 47.117188 -126.65625 47 -126.648438 46.914062 -126.632812 C 46.917969 -126.632812 46.9375 -126.644531 46.980469 -126.660156 C 47.199219 -126.746094 47.386719 -126.878906 47.550781 -127.058594 C 47.644531 -127.164062 47.703125 -127.238281 47.714844 -127.285156 C 47.632812 -127.027344 47.589844 -126.636719 47.589844 -126.113281 L 47.589844 -26.574219 C 47.589844 -26.046875 47.632812 -25.65625 47.714844 -25.402344 C 47.703125 -25.445312 47.644531 -25.519531 47.550781 -25.628906 C 47.386719 -25.804688 47.199219 -25.9375 46.980469 -26.027344 C 46.9375 -26.042969 46.917969 -26.050781 46.914062 -26.050781 C 47 -26.035156 47.117188 -26.027344 47.265625 -26.027344 C 52.238281 -26.027344 56.191406 -24.316406 59.128906 -20.890625 C 61.746094 -17.835938 63.054688 -13.921875 63.054688 -9.148438 L 63.054688 -6.753906 C 63.054688 -1.59375 61.53125 2.511719 58.484375 5.558594 C 55.4375 8.605469 51.335938 10.128906 46.175781 10.128906 L 13.070312 10.128906 C 7.910156 10.128906 3.804688 8.605469 0.757812 5.558594 C -2.289062 2.511719 -3.8125 -1.59375 -3.8125 -6.753906 Z M 12.523438 -9.148438 L 12.523438 -6.753906 C 12.523438 -6.183594 12.566406 -5.773438 12.648438 -5.523438 C 12.605469 -5.652344 12.492188 -5.808594 12.308594 -5.992188 C 12.128906 -6.175781 11.96875 -6.289062 11.839844 -6.332031 C 12.089844 -6.25 12.5 -6.207031 13.070312 -6.207031 L 46.175781 -6.207031 C 46.746094 -6.207031 47.152344 -6.25 47.40625 -6.332031 C 47.273438 -6.289062 47.117188 -6.175781 46.933594 -5.992188 C 46.75 -5.808594 46.636719 -5.652344 46.59375 -5.523438 C 46.679688 -5.773438 46.71875 -6.183594 46.71875 -6.753906 L 46.71875 -9.148438 C 46.71875 -9.714844 46.675781 -10.144531 46.585938 -10.441406 L 46.582031 -10.464844 C 46.617188 -10.398438 46.664062 -10.328125 46.726562 -10.257812 C 46.9375 -10.011719 47.1875 -9.832031 47.472656 -9.714844 C 47.535156 -9.691406 47.578125 -9.675781 47.597656 -9.671875 C 47.519531 -9.6875 47.410156 -9.691406 47.265625 -9.691406 C 42.378906 -9.691406 38.4375 -11.351562 35.4375 -14.667969 C 32.648438 -17.746094 31.253906 -21.714844 31.253906 -26.574219 L 31.253906 -126.113281 C 31.253906 -130.96875 32.648438 -134.9375 35.4375 -138.015625 C 38.4375 -141.335938 42.378906 -142.992188 47.265625 -142.992188 C 47.457031 -142.992188 47.617188 -143.003906 47.734375 -143.023438 L 47.691406 -143.003906 C 47.378906 -142.882812 47.09375 -142.675781 46.835938 -142.382812 C 46.730469 -142.261719 46.644531 -142.140625 46.585938 -142.023438 L 46.570312 -142.011719 C 46.671875 -142.355469 46.71875 -142.863281 46.71875 -143.535156 L 46.71875 -145.933594 C 46.71875 -146.5 46.679688 -146.910156 46.59375 -147.160156 C 46.636719 -147.03125 46.75 -146.875 46.933594 -146.691406 C 47.117188 -146.507812 47.273438 -146.394531 47.40625 -146.351562 C 47.152344 -146.4375 46.746094 -146.476562 46.175781 -146.476562 L 13.070312 -146.476562 C 12.5 -146.476562 12.089844 -146.4375 11.839844 -146.351562 C 11.96875 -146.394531 12.128906 -146.507812 12.308594 -146.691406 C 12.492188 -146.875 12.605469 -147.03125 12.648438 -147.160156 C 12.566406 -146.910156 12.523438 -146.5 12.523438 -145.933594 L 12.523438 -143.535156 C 12.523438 -142.96875 12.570312 -142.539062 12.660156 -142.246094 L 12.660156 -142.222656 C 12.625 -142.289062 12.578125 -142.355469 12.519531 -142.425781 C 12.308594 -142.671875 12.058594 -142.855469 11.769531 -142.96875 C 11.710938 -142.996094 11.667969 -143.007812 11.644531 -143.011719 C 11.722656 -143 11.835938 -142.992188 11.980469 -142.992188 C 16.953125 -142.992188 20.90625 -141.28125 23.84375 -137.851562 C 26.460938 -134.800781 27.769531 -130.886719 27.769531 -126.113281 L 27.769531 -26.574219 C 27.769531 -21.800781 26.460938 -17.886719 23.84375 -14.832031 C 20.90625 -11.40625 16.953125 -9.691406 11.980469 -9.691406 C 11.835938 -9.691406 11.722656 -9.6875 11.644531 -9.671875 C 11.667969 -9.675781 11.710938 -9.691406 11.769531 -9.714844 C 12.058594 -9.832031 12.308594 -10.011719 12.519531 -10.257812 C 12.578125 -10.328125 12.625 -10.398438 12.660156 -10.464844 L 12.660156 -10.441406 C 12.570312 -10.144531 12.523438 -9.714844 12.523438 -9.148438 Z M 12.523438 -9.148438 "/></g></g></g><g fill="#ad3918" fill-opacity="1"><g transform="translate(485.559923, 219.293424)"><g><path d="M 88.214844 -26.027344 C 93.371094 -26.027344 97.476562 -24.503906 100.523438 -21.457031 C 103.570312 -18.410156 105.09375 -14.308594 105.09375 -9.148438 L 105.09375 -6.753906 C 105.09375 -1.59375 103.570312 2.511719 100.523438 5.558594 C 97.476562 8.605469 93.371094 10.128906 88.214844 10.128906 L 32.890625 10.128906 C 26.34375 10.128906 20.816406 7.757812 16.300781 3.019531 L 22.214844 -2.613281 L 16.441406 3.160156 L 9.472656 -3.808594 C 4.972656 -8.308594 2.722656 -13.789062 2.722656 -20.257812 L 2.722656 -145.933594 C 2.722656 -151.09375 4.246094 -155.195312 7.292969 -158.242188 C 10.339844 -161.289062 14.441406 -162.8125 19.601562 -162.8125 L 22 -162.8125 C 27.160156 -162.8125 31.261719 -161.289062 34.308594 -158.242188 C 37.355469 -155.195312 38.878906 -151.09375 38.878906 -145.933594 L 38.878906 -26.574219 C 38.878906 -26.003906 38.921875 -25.59375 39.003906 -25.34375 C 38.960938 -25.472656 38.847656 -25.632812 38.664062 -25.8125 C 38.480469 -25.996094 38.324219 -26.109375 38.195312 -26.152344 C 38.445312 -26.070312 38.855469 -26.027344 39.421875 -26.027344 Z M 88.214844 -9.691406 L 39.421875 -9.691406 C 34.265625 -9.691406 30.160156 -11.214844 27.113281 -14.261719 C 24.066406 -17.308594 22.542969 -21.414062 22.542969 -26.574219 L 22.542969 -145.933594 C 22.542969 -146.5 22.5 -146.910156 22.417969 -147.160156 C 22.460938 -147.03125 22.574219 -146.875 22.757812 -146.691406 C 22.941406 -146.507812 23.097656 -146.394531 23.226562 -146.351562 C 22.976562 -146.4375 22.566406 -146.476562 22 -146.476562 L 19.601562 -146.476562 C 19.035156 -146.476562 18.625 -146.4375 18.375 -146.351562 C 18.503906 -146.394531 18.660156 -146.507812 18.84375 -146.691406 C 19.027344 -146.875 19.140625 -147.03125 19.183594 -147.160156 C 19.101562 -146.910156 19.058594 -146.5 19.058594 -145.933594 L 19.058594 -20.257812 C 19.058594 -18.300781 19.714844 -16.667969 21.023438 -15.359375 L 28.0625 -8.320312 L 28.132812 -8.246094 C 29.425781 -6.886719 31.011719 -6.207031 32.890625 -6.207031 L 88.214844 -6.207031 C 88.78125 -6.207031 89.191406 -6.25 89.441406 -6.332031 C 89.3125 -6.289062 89.15625 -6.175781 88.972656 -5.992188 C 88.789062 -5.808594 88.675781 -5.652344 88.632812 -5.523438 C 88.714844 -5.773438 88.757812 -6.183594 88.757812 -6.753906 L 88.757812 -9.148438 C 88.757812 -9.714844 88.714844 -10.125 88.632812 -10.375 C 88.675781 -10.246094 88.789062 -10.089844 88.972656 -9.90625 C 89.15625 -9.722656 89.3125 -9.609375 89.441406 -9.566406 C 89.191406 -9.652344 88.78125 -9.691406 88.214844 -9.691406 Z M 88.214844 -9.691406 "/></g></g></g><g fill="#ad3918" fill-opacity="1"><g transform="translate(591.197756, 219.293424)"><g><path d="M 88.214844 -26.464844 C 93.371094 -26.464844 97.476562 -24.941406 100.523438 -21.894531 C 103.570312 -18.847656 105.09375 -14.742188 105.09375 -9.582031 L 105.09375 -7.1875 C 105.09375 -2.027344 103.570312 2.074219 100.523438 5.121094 C 97.476562 8.167969 93.371094 9.691406 88.214844 9.691406 L 32.890625 9.691406 C 26.34375 9.691406 20.816406 7.324219 16.300781 2.582031 L 22.214844 -3.050781 L 16.441406 2.726562 L 9.472656 -4.242188 C 4.972656 -8.742188 2.722656 -14.226562 2.722656 -20.691406 L 2.722656 -146.152344 C 2.722656 -151.308594 4.246094 -155.414062 7.292969 -158.460938 C 10.339844 -161.507812 14.441406 -163.03125 19.601562 -163.03125 L 88.214844 -163.03125 C 93.371094 -163.03125 97.476562 -161.507812 100.523438 -158.460938 C 103.570312 -155.414062 105.09375 -151.308594 105.09375 -146.152344 L 105.09375 -143.753906 C 105.09375 -138.59375 103.570312 -134.492188 100.523438 -131.445312 C 97.476562 -128.398438 93.371094 -126.875 88.214844 -126.875 L 39.207031 -126.875 C 38.636719 -126.875 38.226562 -126.832031 37.976562 -126.75 C 38.109375 -126.792969 38.265625 -126.90625 38.445312 -127.089844 C 38.628906 -127.273438 38.742188 -127.429688 38.785156 -127.558594 C 38.703125 -127.308594 38.660156 -126.898438 38.660156 -126.328125 L 38.660156 -97.144531 C 38.660156 -96.574219 38.703125 -96.164062 38.785156 -95.914062 C 38.742188 -96.046875 38.628906 -96.203125 38.445312 -96.382812 C 38.265625 -96.566406 38.109375 -96.679688 37.976562 -96.722656 C 38.226562 -96.640625 38.636719 -96.597656 39.207031 -96.597656 L 88.214844 -96.597656 C 93.371094 -96.597656 97.476562 -95.074219 100.523438 -92.027344 C 103.570312 -88.980469 105.09375 -84.878906 105.09375 -79.71875 L 105.09375 -77.324219 C 105.09375 -72.164062 103.570312 -68.058594 100.523438 -65.011719 C 97.476562 -61.964844 93.371094 -60.441406 88.214844 -60.441406 L 39.207031 -60.441406 C 38.636719 -60.441406 38.226562 -60.402344 37.976562 -60.316406 C 38.109375 -60.359375 38.265625 -60.472656 38.445312 -60.65625 C 38.628906 -60.839844 38.742188 -60.996094 38.785156 -61.125 C 38.703125 -60.875 38.660156 -60.464844 38.660156 -59.898438 L 38.660156 -27.007812 C 38.660156 -26.441406 38.703125 -26.03125 38.785156 -25.78125 C 38.742188 -25.910156 38.628906 -26.066406 38.445312 -26.25 C 38.265625 -26.433594 38.109375 -26.546875 37.976562 -26.589844 C 38.226562 -26.503906 38.636719 -26.464844 39.207031 -26.464844 Z M 88.214844 -10.128906 L 39.207031 -10.128906 C 34.046875 -10.128906 29.941406 -11.652344 26.894531 -14.699219 C 23.847656 -17.746094 22.324219 -21.847656 22.324219 -27.007812 L 22.324219 -59.898438 C 22.324219 -65.058594 23.847656 -69.160156 26.894531 -72.207031 C 29.941406 -75.253906 34.046875 -76.777344 39.207031 -76.777344 L 88.214844 -76.777344 C 88.78125 -76.777344 89.191406 -76.820312 89.441406 -76.902344 C 89.3125 -76.859375 89.15625 -76.746094 88.972656 -76.5625 C 88.789062 -76.382812 88.675781 -76.222656 88.632812 -76.09375 C 88.714844 -76.34375 88.757812 -76.753906 88.757812 -77.324219 L 88.757812 -79.71875 C 88.757812 -80.285156 88.714844 -80.695312 88.632812 -80.949219 C 88.675781 -80.816406 88.789062 -80.660156 88.972656 -80.476562 C 89.15625 -80.292969 89.3125 -80.179688 89.441406 -80.136719 C 89.191406 -80.222656 88.78125 -80.261719 88.214844 -80.261719 L 39.207031 -80.261719 C 34.046875 -80.261719 29.941406 -81.785156 26.894531 -84.832031 C 23.847656 -87.878906 22.324219 -91.984375 22.324219 -97.144531 L 22.324219 -126.328125 C 22.324219 -131.488281 23.847656 -135.59375 26.894531 -138.640625 C 29.941406 -141.6875 34.046875 -143.210938 39.207031 -143.210938 L 88.214844 -143.210938 C 88.78125 -143.210938 89.191406 -143.253906 89.441406 -143.335938 C 89.3125 -143.292969 89.15625 -143.179688 88.972656 -142.996094 C 88.789062 -142.8125 88.675781 -142.65625 88.632812 -142.527344 C 88.714844 -142.777344 88.757812 -143.1875 88.757812 -143.753906 L 88.757812 -146.152344 C 88.757812 -146.71875 88.714844 -147.128906 88.632812 -147.378906 C 88.675781 -147.25 88.789062 -147.09375 88.972656 -146.910156 C 89.15625 -146.726562 89.3125 -146.613281 89.441406 -146.570312 C 89.191406 -146.652344 88.78125 -146.695312 88.214844 -146.695312 L 19.601562 -146.695312 C 19.035156 -146.695312 18.625 -146.652344 18.375 -146.570312 C 18.503906 -146.613281 18.660156 -146.726562 18.84375 -146.910156 C 19.027344 -147.09375 19.140625 -147.25 19.183594 -147.378906 C 19.101562 -147.128906 19.058594 -146.71875 19.058594 -146.152344 L 19.058594 -20.691406 C 19.058594 -18.738281 19.714844 -17.105469 21.023438 -15.792969 L 28.132812 -8.683594 C 29.425781 -7.324219 31.011719 -6.644531 32.890625 -6.644531 L 88.214844 -6.644531 C 88.78125 -6.644531 89.191406 -6.683594 89.441406 -6.769531 C 89.3125 -6.726562 89.15625 -6.613281 88.972656 -6.429688 C 88.789062 -6.246094 88.675781 -6.089844 88.632812 -5.960938 C 88.714844 -6.210938 88.757812 -6.621094 88.757812 -7.1875 L 88.757812 -9.582031 C 88.757812 -10.152344 88.714844 -10.5625 88.632812 -10.8125 C 88.675781 -10.683594 88.789062 -10.523438 88.972656 -10.34375 C 89.15625 -10.160156 89.3125 -10.046875 89.441406 -10.003906 C 89.191406 -10.085938 88.78125 -10.128906 88.214844 -10.128906 Z M 88.214844 -10.128906 "/></g></g></g><g fill="#f6b438" fill-opacity="1"><g transform="translate(1.150671, 219.293424)"><g><path d="M 92.78125 -142.890625 C 95.6875 -139.835938 97.140625 -136.207031 97.140625 -132 L 97.140625 -73.625 C 97.140625 -69.40625 95.6875 -65.773438 92.78125 -62.734375 L 85.8125 -55.765625 C 82.914062 -52.859375 79.359375 -51.40625 75.140625 -51.40625 L 39.421875 -51.40625 C 33.617188 -51.40625 30.71875 -48.5 30.71875 -42.6875 L 30.71875 -6.53125 C 30.71875 -0.726562 27.8125 2.171875 22 2.171875 L 19.609375 2.171875 C 13.796875 2.171875 10.890625 -0.726562 10.890625 -6.53125 L 10.890625 -145.5 C 10.890625 -151.3125 13.796875 -154.21875 19.609375 -154.21875 L 75.140625 -154.21875 C 79.359375 -154.21875 82.914062 -152.765625 85.8125 -149.859375 Z M 77.546875 -125.671875 C 77.546875 -131.484375 74.640625 -134.390625 68.828125 -134.390625 L 39.640625 -134.390625 C 33.828125 -134.390625 30.921875 -131.484375 30.921875 -125.671875 L 30.921875 -79.9375 C 30.921875 -74.125 33.828125 -71.21875 39.640625 -71.21875 L 68.609375 -71.21875 C 74.421875 -71.21875 77.328125 -74.125 77.328125 -79.9375 Z M 77.546875 -125.671875 "/></g></g></g><g fill="#f6b438" fill-opacity="1"><g transform="translate(107.006283, 219.293424)"><g><path d="M 88.21875 -17.859375 C 94.019531 -17.859375 96.921875 -14.953125 96.921875 -9.140625 L 96.921875 -6.75 C 96.921875 -0.945312 94.019531 1.953125 88.21875 1.953125 L 80.375 1.953125 C 76.164062 1.953125 72.609375 0.503906 69.703125 -2.390625 L 62.515625 -9.578125 C 59.609375 -12.484375 58.15625 -16.039062 58.15625 -20.25 L 58.15625 -46.828125 C 58.15625 -52.640625 55.25 -55.546875 49.4375 -55.546875 L 39.421875 -55.546875 C 33.617188 -55.546875 30.71875 -52.640625 30.71875 -46.828125 L 30.71875 -6.96875 C 30.71875 -1.15625 27.8125 1.75 22 1.75 L 19.609375 1.75 C 13.796875 1.75 10.890625 -1.15625 10.890625 -6.96875 L 10.890625 -145.71875 C 10.890625 -151.519531 13.796875 -154.421875 19.609375 -154.421875 L 74.703125 -154.421875 C 78.921875 -154.421875 82.476562 -152.972656 85.375 -150.078125 L 92.578125 -142.890625 C 95.472656 -139.984375 96.921875 -136.425781 96.921875 -132.21875 L 96.921875 -77.546875 C 96.921875 -75.367188 96.554688 -73.441406 95.828125 -71.765625 C 95.109375 -70.097656 93.953125 -68.46875 92.359375 -66.875 L 85.375 -59.90625 C 82.476562 -57 80.519531 -55.546875 79.5 -55.546875 C 78.488281 -55.546875 77.984375 -52.640625 77.984375 -46.828125 L 77.984375 -26.578125 C 77.984375 -20.765625 80.882812 -17.859375 86.6875 -17.859375 Z M 77.109375 -125.890625 C 77.109375 -131.703125 74.203125 -134.609375 68.390625 -134.609375 L 39.421875 -134.609375 C 33.617188 -134.609375 30.71875 -131.703125 30.71875 -125.890625 L 30.71875 -83.859375 C 30.71875 -78.046875 33.617188 -75.140625 39.421875 -75.140625 L 68.390625 -75.140625 C 74.203125 -75.140625 77.109375 -78.046875 77.109375 -83.859375 Z M 77.109375 -125.890625 "/></g></g></g><g fill="#f6b438" fill-opacity="1"><g transform="translate(212.644095, 219.293424)"><g><path d="M 97.140625 -20.25 C 97.140625 -16.039062 95.6875 -12.410156 92.78125 -9.359375 L 85.8125 -2.390625 C 82.914062 0.503906 79.359375 1.953125 75.140625 1.953125 L 33.109375 1.953125 C 28.898438 1.953125 25.34375 0.503906 22.4375 -2.390625 L 15.25 -9.578125 C 12.34375 -12.484375 10.890625 -16.039062 10.890625 -20.25 L 10.890625 -132.640625 C 10.890625 -136.859375 12.34375 -140.488281 15.25 -143.53125 L 22.21875 -150.515625 C 25.125 -153.410156 28.679688 -154.859375 32.890625 -154.859375 L 75.140625 -154.859375 C 79.359375 -154.859375 82.914062 -153.335938 85.8125 -150.296875 L 92.78125 -143.328125 C 95.6875 -140.421875 97.140625 -136.859375 97.140625 -132.640625 Z M 68.609375 -17.859375 C 74.421875 -17.859375 77.328125 -20.765625 77.328125 -26.578125 L 77.328125 -126.328125 C 77.328125 -132.140625 74.421875 -135.046875 68.609375 -135.046875 L 39.421875 -135.046875 C 33.617188 -135.046875 30.71875 -132.140625 30.71875 -126.328125 L 30.71875 -26.578125 C 30.71875 -20.765625 33.617188 -17.859375 39.421875 -17.859375 Z M 68.609375 -17.859375 "/></g></g></g><g fill="#f6b438" fill-opacity="1"><g transform="translate(320.677799, 219.293424)"><g><path d="M 10.890625 -145.71875 C 10.890625 -151.519531 13.796875 -154.421875 19.609375 -154.421875 L 88.21875 -154.421875 C 94.019531 -154.421875 96.921875 -151.519531 96.921875 -145.71875 L 96.921875 -143.328125 C 96.921875 -137.515625 94.019531 -134.609375 88.21875 -134.609375 L 39.421875 -134.609375 C 33.617188 -134.609375 30.71875 -131.703125 30.71875 -125.890625 L 30.71875 -88.875 C 30.71875 -83.0625 33.617188 -80.15625 39.421875 -80.15625 L 88.21875 -80.15625 C 94.019531 -80.15625 96.921875 -77.25 96.921875 -71.4375 L 96.921875 -69.046875 C 96.921875 -63.234375 94.019531 -60.328125 88.21875 -60.328125 L 39.421875 -60.328125 C 33.617188 -60.328125 30.71875 -57.425781 30.71875 -51.625 L 30.71875 -6.75 C 30.71875 -0.945312 27.8125 1.953125 22 1.953125 L 19.609375 1.953125 C 13.796875 1.953125 10.890625 -0.945312 10.890625 -6.75 Z M 10.890625 -145.71875 "/></g></g></g><g fill="#f6b438" fill-opacity="1"><g transform="translate(426.315631, 219.293424)"><g><path d="M 4.359375 -9.140625 C 4.359375 -11.898438 5.007812 -14.039062 6.3125 -15.5625 C 7.625 -17.09375 9.515625 -17.859375 11.984375 -17.859375 C 14.453125 -17.859375 16.335938 -18.617188 17.640625 -20.140625 C 18.953125 -21.671875 19.609375 -23.816406 19.609375 -26.578125 L 19.609375 -126.109375 C 19.609375 -128.867188 18.953125 -131.007812 17.640625 -132.53125 C 16.335938 -134.0625 14.453125 -134.828125 11.984375 -134.828125 C 9.515625 -134.828125 7.625 -135.585938 6.3125 -137.109375 C 5.007812 -138.640625 4.359375 -140.78125 4.359375 -143.53125 L 4.359375 -145.9375 C 4.359375 -151.738281 7.257812 -154.640625 13.0625 -154.640625 L 46.171875 -154.640625 C 51.984375 -154.640625 54.890625 -151.738281 54.890625 -145.9375 L 54.890625 -143.53125 C 54.890625 -137.726562 52.347656 -134.828125 47.265625 -134.828125 C 44.796875 -134.828125 42.867188 -134.0625 41.484375 -132.53125 C 40.109375 -131.007812 39.421875 -128.867188 39.421875 -126.109375 L 39.421875 -26.578125 C 39.421875 -23.816406 40.109375 -21.671875 41.484375 -20.140625 C 42.867188 -18.617188 44.796875 -17.859375 47.265625 -17.859375 C 49.734375 -17.859375 51.617188 -17.09375 52.921875 -15.5625 C 54.234375 -14.039062 54.890625 -11.898438 54.890625 -9.140625 L 54.890625 -6.75 C 54.890625 -0.945312 51.984375 1.953125 46.171875 1.953125 L 13.0625 1.953125 C 7.257812 1.953125 4.359375 -0.945312 4.359375 -6.75 Z M 4.359375 -9.140625 "/></g></g></g><g fill="#f6b438" fill-opacity="1"><g transform="translate(485.559923, 219.293424)"><g><path d="M 88.21875 -17.859375 C 94.019531 -17.859375 96.921875 -14.953125 96.921875 -9.140625 L 96.921875 -6.75 C 96.921875 -0.945312 94.019531 1.953125 88.21875 1.953125 L 32.890625 1.953125 C 28.679688 1.953125 25.125 0.429688 22.21875 -2.609375 L 15.25 -9.578125 C 12.34375 -12.484375 10.890625 -16.039062 10.890625 -20.25 L 10.890625 -145.9375 C 10.890625 -151.738281 13.796875 -154.640625 19.609375 -154.640625 L 22 -154.640625 C 27.8125 -154.640625 30.71875 -151.738281 30.71875 -145.9375 L 30.71875 -26.578125 C 30.71875 -20.765625 33.617188 -17.859375 39.421875 -17.859375 Z M 88.21875 -17.859375 "/></g></g></g><g fill="#f6b438" fill-opacity="1"><g transform="translate(591.197756, 219.293424)"><g><path d="M 88.21875 -18.296875 C 94.019531 -18.296875 96.921875 -15.390625 96.921875 -9.578125 L 96.921875 -7.1875 C 96.921875 -1.375 94.019531 1.53125 88.21875 1.53125 L 32.890625 1.53125 C 28.679688 1.53125 25.125 0.00390625 22.21875 -3.046875 L 15.25 -10.015625 C 12.34375 -12.921875 10.890625 -16.476562 10.890625 -20.6875 L 10.890625 -146.15625 C 10.890625 -151.957031 13.796875 -154.859375 19.609375 -154.859375 L 88.21875 -154.859375 C 94.019531 -154.859375 96.921875 -151.957031 96.921875 -146.15625 L 96.921875 -143.75 C 96.921875 -137.945312 94.019531 -135.046875 88.21875 -135.046875 L 39.203125 -135.046875 C 33.398438 -135.046875 30.5 -132.140625 30.5 -126.328125 L 30.5 -97.140625 C 30.5 -91.335938 33.398438 -88.4375 39.203125 -88.4375 L 88.21875 -88.4375 C 94.019531 -88.4375 96.921875 -85.53125 96.921875 -79.71875 L 96.921875 -77.328125 C 96.921875 -71.515625 94.019531 -68.609375 88.21875 -68.609375 L 39.203125 -68.609375 C 33.398438 -68.609375 30.5 -65.707031 30.5 -59.90625 L 30.5 -27.015625 C 30.5 -21.203125 33.398438 -18.296875 39.203125 -18.296875 Z M 88.21875 -18.296875 "/></g></g></g></g></g></svg>